<mxfile host="app.diagrams.net" agent="Mozilla/5.0 (Windows NT 10.0; Win64; x64) AppleWebKit/537.36 (KHTML, like Gecko) Chrome/128.0.0.0 Safari/537.36 OPR/114.0.0.0" version="24.8.6">
  <diagram name="PÃ¡gina-1" id="wPoTjop9F4gzZ_P1RDRB">
    <mxGraphModel dx="1393" dy="801" grid="1" gridSize="10" guides="1" tooltips="1" connect="1" arrows="1" fold="1" page="1" pageScale="1" pageWidth="827" pageHeight="1169" math="0" shadow="0">
      <root>
        <mxCell id="0" />
        <mxCell id="1" parent="0" />
        <mxCell id="Kg3V1V4wY09qNhEiFwgA-78" value="User 1" style="shape=umlActor;verticalLabelPosition=bottom;verticalAlign=top;html=1;outlineConnect=0;" parent="1" vertex="1">
          <mxGeometry x="120" y="250" width="30" height="60" as="geometry" />
        </mxCell>
        <mxCell id="Kg3V1V4wY09qNhEiFwgA-79" value="User 2" style="shape=umlActor;verticalLabelPosition=bottom;verticalAlign=top;html=1;outlineConnect=0;shadow=0;strokeColor=default;" parent="1" vertex="1">
          <mxGeometry x="250" y="250" width="30" height="60" as="geometry" />
        </mxCell>
        <mxCell id="Kg3V1V4wY09qNhEiFwgA-87" value="" style="endArrow=classic;startArrow=classic;html=1;rounded=0;" parent="1" edge="1">
          <mxGeometry width="50" height="50" relative="1" as="geometry">
            <mxPoint x="160" y="280" as="sourcePoint" />
            <mxPoint x="240" y="280" as="targetPoint" />
          </mxGeometry>
        </mxCell>
        <mxCell id="Kg3V1V4wY09qNhEiFwgA-89" value="Similar preferences" style="text;html=1;align=center;verticalAlign=middle;whiteSpace=wrap;rounded=0;" parent="1" vertex="1">
          <mxGeometry x="180" y="250" width="50" height="20" as="geometry" />
        </mxCell>
        <mxCell id="Kg3V1V4wY09qNhEiFwgA-91" value="&lt;font style=&quot;font-size: 10px;&quot;&gt;Film A&lt;/font&gt;" style="rounded=1;whiteSpace=wrap;html=1;fillColor=#cce5ff;strokeColor=#36393d;" parent="1" vertex="1">
          <mxGeometry x="150" y="160" width="40" height="40" as="geometry" />
        </mxCell>
        <mxCell id="Kg3V1V4wY09qNhEiFwgA-95" value="&lt;font style=&quot;font-size: 10px;&quot;&gt;Film B&lt;/font&gt;" style="rounded=1;whiteSpace=wrap;html=1;fillColor=#cdeb8b;strokeColor=#36393d;" parent="1" vertex="1">
          <mxGeometry x="210" y="160" width="40" height="40" as="geometry" />
        </mxCell>
        <mxCell id="Kg3V1V4wY09qNhEiFwgA-96" value="Liked by both" style="text;html=1;align=center;verticalAlign=middle;whiteSpace=wrap;rounded=0;" parent="1" vertex="1">
          <mxGeometry x="155" y="130" width="100" height="30" as="geometry" />
        </mxCell>
        <mxCell id="Kg3V1V4wY09qNhEiFwgA-98" value="" style="endArrow=classic;html=1;rounded=0;" parent="1" edge="1">
          <mxGeometry width="50" height="50" relative="1" as="geometry">
            <mxPoint x="140" y="240" as="sourcePoint" />
            <mxPoint x="170" y="210" as="targetPoint" />
          </mxGeometry>
        </mxCell>
        <mxCell id="Kg3V1V4wY09qNhEiFwgA-99" value="" style="endArrow=classic;html=1;rounded=0;" parent="1" edge="1">
          <mxGeometry width="50" height="50" relative="1" as="geometry">
            <mxPoint x="140" y="240" as="sourcePoint" />
            <mxPoint x="230" y="210" as="targetPoint" />
          </mxGeometry>
        </mxCell>
        <mxCell id="Kg3V1V4wY09qNhEiFwgA-102" value="" style="endArrow=classic;html=1;rounded=0;" parent="1" edge="1">
          <mxGeometry width="50" height="50" relative="1" as="geometry">
            <mxPoint x="260" y="240" as="sourcePoint" />
            <mxPoint x="170" y="210" as="targetPoint" />
          </mxGeometry>
        </mxCell>
        <mxCell id="Kg3V1V4wY09qNhEiFwgA-103" value="" style="endArrow=classic;html=1;rounded=0;" parent="1" edge="1">
          <mxGeometry width="50" height="50" relative="1" as="geometry">
            <mxPoint x="260" y="240" as="sourcePoint" />
            <mxPoint x="230" y="210" as="targetPoint" />
          </mxGeometry>
        </mxCell>
        <mxCell id="Kg3V1V4wY09qNhEiFwgA-104" value="&lt;font style=&quot;font-size: 10px;&quot;&gt;Film C&lt;/font&gt;" style="rounded=1;whiteSpace=wrap;html=1;fillColor=#ffcccc;strokeColor=#36393d;" parent="1" vertex="1">
          <mxGeometry x="180" y="360" width="40" height="40" as="geometry" />
        </mxCell>
        <mxCell id="Kg3V1V4wY09qNhEiFwgA-105" value="" style="endArrow=classic;html=1;rounded=0;" parent="1" edge="1">
          <mxGeometry width="50" height="50" relative="1" as="geometry">
            <mxPoint x="140" y="340" as="sourcePoint" />
            <mxPoint x="170" y="380" as="targetPoint" />
          </mxGeometry>
        </mxCell>
        <mxCell id="Kg3V1V4wY09qNhEiFwgA-107" value="Liked by User 1" style="text;html=1;align=center;verticalAlign=middle;whiteSpace=wrap;rounded=0;" parent="1" vertex="1">
          <mxGeometry x="165" y="400" width="70" height="30" as="geometry" />
        </mxCell>
        <mxCell id="Kg3V1V4wY09qNhEiFwgA-108" value="" style="endArrow=classic;html=1;rounded=0;strokeWidth=3;" parent="1" edge="1">
          <mxGeometry width="50" height="50" relative="1" as="geometry">
            <mxPoint x="230" y="380" as="sourcePoint" />
            <mxPoint x="270" y="340" as="targetPoint" />
          </mxGeometry>
        </mxCell>
        <mxCell id="Kg3V1V4wY09qNhEiFwgA-109" value="&lt;b&gt;Recommended to User 2&lt;/b&gt;" style="text;html=1;align=center;verticalAlign=middle;whiteSpace=wrap;rounded=0;" parent="1" vertex="1">
          <mxGeometry x="270" y="360" width="70" height="30" as="geometry" />
        </mxCell>
        <mxCell id="Kg3V1V4wY09qNhEiFwgA-110" value="User&lt;div&gt;&lt;br&gt;&lt;/div&gt;" style="shape=umlActor;verticalLabelPosition=bottom;verticalAlign=top;html=1;outlineConnect=0;" parent="1" vertex="1">
          <mxGeometry x="419.5" y="160" width="30" height="60" as="geometry" />
        </mxCell>
        <mxCell id="Kg3V1V4wY09qNhEiFwgA-112" value="" style="endArrow=classic;startArrow=classic;html=1;rounded=0;entryX=0.5;entryY=0;entryDx=0;entryDy=0;exitX=0.5;exitY=1;exitDx=0;exitDy=0;" parent="1" source="Kg3V1V4wY09qNhEiFwgA-114" target="Kg3V1V4wY09qNhEiFwgA-115" edge="1">
          <mxGeometry width="50" height="50" relative="1" as="geometry">
            <mxPoint x="514.5" y="200" as="sourcePoint" />
            <mxPoint x="594.5" y="200" as="targetPoint" />
          </mxGeometry>
        </mxCell>
        <mxCell id="Kg3V1V4wY09qNhEiFwgA-113" value="Similar Films" style="text;html=1;align=center;verticalAlign=middle;whiteSpace=wrap;rounded=0;" parent="1" vertex="1">
          <mxGeometry x="538.5" y="230" width="50" height="20" as="geometry" />
        </mxCell>
        <mxCell id="Kg3V1V4wY09qNhEiFwgA-114" value="&lt;font style=&quot;font-size: 10px;&quot;&gt;Film A&lt;/font&gt;" style="rounded=1;whiteSpace=wrap;html=1;fillColor=#cce5ff;strokeColor=#36393d;" parent="1" vertex="1">
          <mxGeometry x="498.5" y="160" width="40" height="40" as="geometry" />
        </mxCell>
        <mxCell id="Kg3V1V4wY09qNhEiFwgA-115" value="&lt;font style=&quot;font-size: 10px;&quot;&gt;Film B&lt;/font&gt;" style="rounded=1;whiteSpace=wrap;html=1;fillColor=#cdeb8b;strokeColor=#36393d;" parent="1" vertex="1">
          <mxGeometry x="498.5" y="280" width="40" height="40" as="geometry" />
        </mxCell>
        <mxCell id="Kg3V1V4wY09qNhEiFwgA-124" value="" style="endArrow=classic;html=1;rounded=0;strokeWidth=3;" parent="1" edge="1">
          <mxGeometry width="50" height="50" relative="1" as="geometry">
            <mxPoint x="488.5" y="300" as="sourcePoint" />
            <mxPoint x="438.5" y="250" as="targetPoint" />
          </mxGeometry>
        </mxCell>
        <mxCell id="Kg3V1V4wY09qNhEiFwgA-125" value="&lt;b&gt;Recommended to User&amp;nbsp;&lt;/b&gt;" style="text;html=1;align=center;verticalAlign=middle;whiteSpace=wrap;rounded=0;" parent="1" vertex="1">
          <mxGeometry x="388.5" y="280" width="70" height="30" as="geometry" />
        </mxCell>
        <mxCell id="Kg3V1V4wY09qNhEiFwgA-126" value="COLLABORATIVE FILTERING" style="text;html=1;align=center;verticalAlign=middle;whiteSpace=wrap;rounded=0;fontStyle=1" parent="1" vertex="1">
          <mxGeometry x="120" y="100" width="175" height="30" as="geometry" />
        </mxCell>
        <mxCell id="Kg3V1V4wY09qNhEiFwgA-127" value="CONTENT-BASED FILTERING" style="text;html=1;align=center;verticalAlign=middle;whiteSpace=wrap;rounded=0;fontStyle=1" parent="1" vertex="1">
          <mxGeometry x="401" y="100" width="175" height="30" as="geometry" />
        </mxCell>
      </root>
    </mxGraphModel>
  </diagram>
</mxfile>
